<?xml version="1.0" encoding="utf-8" ?>
<svg xmlns="http://www.w3.org/2000/svg" xmlns:xlink="http://www.w3.org/1999/xlink" width="1536" height="1024">
	<defs>
		<linearGradient id="gradient_0" gradientUnits="userSpaceOnUse" x1="246.52051" y1="47.143986" x2="369.52969" y2="182.61923">
			<stop offset="0" stop-color="#ECB303"/>
			<stop offset="1" stop-color="#D4B230"/>
		</linearGradient>
	</defs>
	<path fill="url(#gradient_0)" transform="scale(2 2)" d="M197.072 136.196C199.809 122.411 213.681 82.5503 221.138 71.3123C239.837 43.132 275.171 46.2509 304.479 46.2479C335.557 46.2447 377.209 40.9606 397.196 70.935C403.224 79.9754 406.38 91.0968 410.138 101.22L423.177 136.196L219.064 136.201C211.855 136.206 204.223 136.845 197.072 136.196Z"/>
	<defs>
		<linearGradient id="gradient_1" gradientUnits="userSpaceOnUse" x1="340.94345" y1="252.83861" x2="277.20853" y2="87.54126">
			<stop offset="0" stop-color="#EA4E17"/>
			<stop offset="1" stop-color="#EC6303"/>
		</linearGradient>
	</defs>
	<path fill="url(#gradient_1)" transform="scale(2 2)" d="M197.072 136.196C204.223 136.845 211.855 136.206 219.064 136.201L423.177 136.196L448.056 136.166C463.463 136.152 473.321 135.14 485.884 145.313C508.001 165.149 494.832 198.431 468.033 204.073L423.177 204.073C414.847 203.721 406.362 204.068 398.013 204.069L193.193 204.073C180.339 203.374 158.287 205.886 146.903 203.359C113.582 195.961 113.634 147.072 145.792 137.816C157.077 134.568 184.06 136.609 197.072 136.196Z"/>
	<defs>
		<linearGradient id="gradient_2" gradientUnits="userSpaceOnUse" x1="501.88055" y1="273.44012" x2="610.63965" y2="129.51216">
			<stop offset="0" stop-color="#FFEF40"/>
			<stop offset="1" stop-color="#E29D08"/>
		</linearGradient>
	</defs>
	<path fill="url(#gradient_2)" transform="scale(2 2)" d="M485.884 145.313C514.3 106.898 570.594 98.7386 608.887 127.173C649.11 157.04 658.445 216.014 628.293 256.372C577.01 325.013 467.732 290.454 468.033 204.073C494.832 198.431 508.001 165.149 485.884 145.313Z"/>
	<defs>
		<linearGradient id="gradient_3" gradientUnits="userSpaceOnUse" x1="310.79617" y1="198.16022" x2="302.1792" y2="341.89932">
			<stop offset="0" stop-color="#FFEF40"/>
			<stop offset="1" stop-color="#E29D08"/>
		</linearGradient>
	</defs>
	<path fill="url(#gradient_3)" transform="scale(2 2)" d="M193.193 204.073L398.013 204.069C406.362 204.068 414.847 203.721 423.177 204.073C430.212 237.364 421.594 275.492 399.034 301.394C397.638 302.997 393.524 306.08 392.992 307.914L393.217 308.135C391.212 309.286 389.084 311.934 387.358 313.563C343.484 354.95 270.544 351.837 229.429 308.135C228.025 306.211 225.913 304.519 224.264 302.767C202.584 279.74 192.123 248.87 193.243 217.321C193.394 213.074 193.955 208.621 193.254 204.415L193.193 204.073Z"/>
	<defs>
		<linearGradient id="gradient_4" gradientUnits="userSpaceOnUse" x1="260.17041" y1="520.80927" x2="374.89642" y2="294.74966">
			<stop offset="0" stop-color="#FF8B28"/>
			<stop offset="1" stop-color="#EC9203"/>
		</linearGradient>
	</defs>
	<path fill="url(#gradient_4)" transform="scale(2 2)" d="M229.429 308.135C270.544 351.837 343.484 354.95 387.358 313.563C389.084 311.934 391.212 309.286 393.217 308.135C397.126 309.216 401.129 309.91 405.023 311.088C450.908 324.968 487.671 368.318 495.404 415.28C500.428 445.794 494.356 460.246 461.888 460.26L168.653 460.256C150.16 460.287 125.715 464.763 121.957 439.749C118.092 414.02 134.722 378.333 149.641 358.293C170.167 330.722 195.586 313.15 229.429 308.135Z"/>
</svg>
