<svg width="595" height="240" viewBox="0 0 595 240" fill="none" xmlns="http://www.w3.org/2000/svg">
<path d="M29.0098 75.4296C30.0589 70.1457 35.3761 54.8668 38.2344 50.5592C45.4019 39.7575 58.9456 40.953 70.1796 40.9518C82.092 40.9506 98.0575 38.9252 105.719 50.4146C108.029 53.8798 109.239 58.1427 110.679 62.023L115.677 75.4296L37.4394 75.4315C34.6762 75.4334 31.7508 75.6783 29.0098 75.4296Z" fill="url(#paint0_linear_437_568)"/>
<path d="M29.0089 75.4302C31.75 75.679 34.6754 75.434 37.4386 75.4321L115.677 75.4302L125.213 75.4187C131.118 75.4133 134.897 75.0254 139.713 78.9248C148.19 86.5281 143.142 99.2853 132.87 101.448H115.677C112.484 101.313 109.231 101.446 106.031 101.446L27.5221 101.448C22.5951 101.18 14.1424 102.143 9.77882 101.174C-2.99335 98.3385 -2.97342 79.599 9.35297 76.0511C13.6786 74.8062 24.0214 75.5885 29.0089 75.4302Z" fill="#EB580D"/>
<path d="M27.5227 101.447L106.032 101.446C109.232 101.445 112.484 101.312 115.677 101.447C118.374 114.208 115.07 128.823 106.423 138.751C105.888 139.365 104.311 140.547 104.107 141.25L104.193 141.335C103.425 141.776 102.609 142.791 101.948 143.415C85.1303 159.279 57.1719 158.086 41.4122 141.335C40.8741 140.597 40.0645 139.949 39.4325 139.277C31.1224 130.451 27.1126 118.618 27.5419 106.525C27.5998 104.897 27.8148 103.19 27.5461 101.578L27.5227 101.447Z" fill="url(#paint1_linear_437_568)"/>
<path d="M41.412 141.335C57.1717 158.086 85.1301 159.279 101.947 143.416C102.609 142.791 103.425 141.776 104.193 141.335C105.691 141.749 107.226 142.015 108.718 142.467C126.306 147.787 140.398 164.404 143.362 182.404C145.288 194.101 142.96 199.64 130.515 199.646L18.1162 199.644C11.0277 199.656 1.65775 201.372 0.217282 191.784C-1.2642 181.921 5.1102 168.242 10.8288 160.561C18.6965 149.993 28.4398 143.257 41.412 141.335Z" fill="url(#paint2_linear_437_568)"/>
<path d="M190 200V146.8L267.2 76V72H190V40H298V93.2L220.8 164V168H298V200H190ZM325.039 200V40H383.039L409.239 170.6H413.239L410.839 104.6V40H443.039V200H385.039L358.839 69.4H354.839L357.239 135.4V200H325.039ZM458.278 200L492.678 40H555.478L589.878 200H552.278L525.078 67.4H521.078L493.278 200H458.278ZM485.278 155.8V120.2H562.678V155.8H485.278Z" fill="#737475"/>
<defs>
<linearGradient id="paint0_linear_437_568" x1="47.9637" y1="41.2953" x2="95.114" y2="93.2239" gradientUnits="userSpaceOnUse">
<stop stop-color="#ECB303"/>
<stop offset="1" stop-color="#D4B230"/>
</linearGradient>
<linearGradient id="paint1_linear_437_568" x1="72.6008" y1="99.1808" x2="69.2979" y2="154.277" gradientUnits="userSpaceOnUse">
<stop stop-color="#FFEF40"/>
<stop offset="1" stop-color="#E29D08"/>
</linearGradient>
<linearGradient id="paint2_linear_437_568" x1="53.1954" y1="222.854" x2="97.1707" y2="136.204" gradientUnits="userSpaceOnUse">
<stop stop-color="#FF8B28"/>
<stop offset="1" stop-color="#EC9203"/>
</linearGradient>
</defs>
</svg>
